<?xml version="1.0" encoding="utf-8"?>
<!-- Generator: Adobe Illustrator 26.0.0, SVG Export Plug-In . SVG Version: 6.00 Build 0)  -->
<svg version="1.1" id="Capa_1" xmlns="http://www.w3.org/2000/svg" xmlns:xlink="http://www.w3.org/1999/xlink" x="0px" y="0px"
	 viewBox="0 0 202.9 302.95" style="enable-background:new 0 0 202.9 302.95;" xml:space="preserve">
<style type="text/css">
	.st0{fill:#E62559;}
	.st1{fill:#462256;}
	.st2{fill:#CB1A5B;}
</style>
<path class="st0" d="M0.09,4.15L0,288.74c0,0,1.02,14.22,13.94,14.22s185.17-0.37,185.17-0.37s3.97,0.46,3.78-4.89
	C202.71,292.34,201.97,0,201.97,0H9.6C9.6,0,1.57,0.92,0.09,4.15z"/>
<path class="st1" d="M0,81.51l53.91-0.09l80.58-45.23l67.57-0.65v11.08l-10.61,0.09L192,294.74c0,0,0.18,1.66-1.85,1.66
	c-2.03,0-176.12-0.83-176.12-0.83s-7.38-3.42-7.29-8.4S6.92,92.86,6.92,92.86l-6.86,0.09L0,81.51z"/>
<path class="st2" d="M9.78,93.05v191.91c0,0,1.2,7.29,9.51,7.48c8.31,0.18,167.35,0.74,167.35,0.74s1.75,0.37,1.75-1.48
	c0-1.85-0.37-242.22-0.37-242.22s0.46-2.95-1.75-2.86c-2.22,0.09-46.98,0.46-46.98,0.46s-3.78,0-8.49,2.68
	c-4.71,2.68-75.32,43.11-75.32,43.11L9.78,93.05z"/>
</svg>
